<svg width="75" height="75" viewBox="0 0 75 75" fill="none" xmlns="http://www.w3.org/2000/svg">
<g clip-path="url(#clip0_1_85)">
<path d="M46.0817 13.3374C48.2637 12.3694 50.7376 11.8316 53.1807 11.8316C54.5943 11.8316 55.9465 12.0006 57.2219 12.3233C57.729 12.4462 58.2207 12.016 58.1438 11.4936L57.9594 10.0184C57.8058 7.55993 54.9939 5.57776 51.6288 5.57776C48.1715 5.57776 44.8679 7.65213 44.8679 10.2182L45.0215 12.6767C45.0676 13.2145 45.6054 13.5526 46.0817 13.3374Z" fill="#99B56F"/>
<path d="M74.8771 55.6085L74.8002 55.1629C74.8002 55.1322 74.7849 55.1014 74.7849 55.0707L71.9422 40.6269C71.5734 37.2926 69.1457 34.3885 65.6116 32.5907L64.2594 22.0959C64.2594 17.6398 59.2194 13.9982 53.1807 13.9982C47.142 13.9982 41.3952 17.6091 41.3952 22.0805C41.3952 22.2956 41.4106 22.5261 41.4413 22.7413L41.5181 23.8783C40.3196 23.4481 38.9521 23.2022 37.5077 23.2022C36.0479 23.2022 34.6804 23.4481 33.4665 23.8937L33.5433 22.7413C33.5741 22.5261 33.5894 22.311 33.5894 22.0805C33.5894 17.6245 27.8273 13.9982 21.8039 13.9982C15.7652 13.9982 10.7253 17.6398 10.7253 22.0959L9.37308 32.5907C5.83897 34.3731 3.41119 37.2926 3.04241 40.6269L0.199754 55.0707C0.199754 55.1014 0.184388 55.1322 0.184388 55.1629L0.10756 55.6085C0.0460971 56.0695 0 56.5304 0 57.0068C0 63.8599 7.17578 69.4223 16.0111 69.4223C24.8463 69.4223 32.0221 63.8599 32.0221 57.0068V51.3215C33.6048 52.059 35.4948 52.4739 37.5077 52.4739C39.5206 52.4739 41.3952 52.059 42.9779 51.3368V57.0068C42.9779 63.8599 50.1537 69.4223 58.9889 69.4223C67.8088 69.4223 75 63.8599 75 57.0068C74.9846 56.5304 74.9385 56.0695 74.8771 55.6085ZM16.0111 64.9508C9.75722 64.9508 4.47142 61.3092 4.47142 57.0068C4.47142 52.689 9.75722 49.0627 16.0111 49.0627C22.2649 49.0627 27.5507 52.7044 27.5507 57.0068C27.5507 61.3092 22.2649 64.9508 16.0111 64.9508ZM37.5077 48.5403C34.8801 48.5403 32.7443 47.0498 32.7443 45.2213C32.7443 43.3928 34.8801 41.9023 37.5077 41.9023C40.1352 41.9023 42.271 43.3928 42.271 45.2213C42.271 47.0498 40.1352 48.5403 37.5077 48.5403ZM58.9736 64.9508C52.7197 64.9508 47.4339 61.3092 47.4339 57.0068C47.4339 52.689 52.7197 49.0627 58.9736 49.0627C65.2274 49.0627 70.5132 52.7044 70.5132 57.0068C70.5132 61.3092 65.2274 64.9508 58.9736 64.9508Z" fill="#99B56F"/>
<path d="M17.7474 12.3233C19.0227 12.0006 20.3903 11.8316 21.7885 11.8316C24.2317 11.8316 26.7209 12.3694 28.8875 13.3375C29.3638 13.5526 29.9016 13.2145 29.9324 12.6921L30.086 10.2336C30.086 7.66751 26.7824 5.59314 23.3251 5.59314C19.96 5.59314 17.1635 7.57532 16.9944 10.0338L16.8101 11.5089C16.7486 12.016 17.2249 12.4616 17.7474 12.3233Z" fill="#99B56F"/>
</g>
<defs>
<clipPath id="clip0_1_85">
<rect width="75" height="75" fill="white"/>
</clipPath>
</defs>
</svg>
