<svg width="34" height="34" viewBox="0 0 34 34" fill="none" xmlns="http://www.w3.org/2000/svg">
<path d="M17 1.0625C13.8479 1.0625 10.7665 1.99722 8.14561 3.74845C5.5247 5.49969 3.48195 7.98879 2.27568 10.901C1.06941 13.8132 0.75379 17.0177 1.36874 20.1093C1.98369 23.2008 3.50159 26.0406 5.73049 28.2695C7.95939 30.4984 10.7992 32.0163 13.8908 32.6313C16.9823 33.2462 20.1868 32.9306 23.099 31.7243C26.0112 30.5181 28.5003 28.4753 30.2516 25.8544C32.0028 23.2335 32.9375 20.1521 32.9375 17C32.9327 12.7746 31.2521 8.72359 28.2642 5.73577C25.2764 2.74794 21.2254 1.06728 17 1.0625ZM19.8762 22.6238C19.9777 22.7218 20.0586 22.8391 20.1143 22.9687C20.17 23.0983 20.1993 23.2377 20.2005 23.3788C20.2017 23.5199 20.1749 23.6598 20.1214 23.7904C20.068 23.921 19.9891 24.0396 19.8894 24.1394C19.7896 24.2391 19.671 24.318 19.5404 24.3714C19.4098 24.4249 19.2699 24.4517 19.1288 24.4505C18.9878 24.4493 18.8483 24.42 18.7187 24.3643C18.5891 24.3086 18.4718 24.2277 18.3738 24.1262L11.9988 17.7512C11.7996 17.5519 11.6877 17.2817 11.6877 17C11.6877 16.7183 11.7996 16.4481 11.9988 16.2488L18.3738 9.87381C18.5742 9.68027 18.8426 9.57318 19.1212 9.5756C19.3998 9.57802 19.6663 9.68976 19.8633 9.88675C20.0602 10.0838 20.172 10.3502 20.1744 10.6288C20.1768 10.9074 20.0697 11.1758 19.8762 11.3762L14.2524 17L19.8762 22.6238Z" fill="#99B56F"/>
</svg>
