<svg width="34" height="34" viewBox="0 0 34 34" fill="none" xmlns="http://www.w3.org/2000/svg">
<path d="M17 1.0625C20.1521 1.0625 23.2335 1.99722 25.8544 3.74845C28.4753 5.49969 30.5181 7.98879 31.7243 10.901C32.9306 13.8132 33.2462 17.0177 32.6313 20.1093C32.0163 23.2008 30.4984 26.0406 28.2695 28.2695C26.0406 30.4984 23.2008 32.0163 20.1092 32.6313C17.0177 33.2462 13.8132 32.9306 10.901 31.7243C7.98878 30.5181 5.49968 28.4753 3.74845 25.8544C1.99721 23.2335 1.06249 20.1521 1.06249 17C1.06727 12.7746 2.74793 8.72359 5.73576 5.73577C8.72358 2.74794 12.7746 1.06728 17 1.0625ZM14.1238 22.6238C14.0223 22.7218 13.9414 22.8391 13.8857 22.9687C13.83 23.0983 13.8007 23.2377 13.7995 23.3788C13.7983 23.5199 13.8251 23.6598 13.8786 23.7904C13.932 23.921 14.0109 24.0396 14.1106 24.1394C14.2104 24.2391 14.329 24.318 14.4596 24.3714C14.5902 24.4249 14.7301 24.4517 14.8712 24.4505C15.0122 24.4493 15.1517 24.42 15.2813 24.3643C15.4109 24.3086 15.5282 24.2277 15.6262 24.1262L22.0012 17.7512C22.2004 17.5519 22.3123 17.2817 22.3123 17C22.3123 16.7183 22.2004 16.4481 22.0012 16.2488L15.6262 9.87381C15.4258 9.68027 15.1574 9.57318 14.8788 9.5756C14.6002 9.57802 14.3337 9.68976 14.1367 9.88675C13.9398 10.0838 13.828 10.3502 13.8256 10.6288C13.8232 10.9074 13.9303 11.1758 14.1238 11.3762L19.7476 17L14.1238 22.6238Z" fill="#99B56F"/>
</svg>
