<svg width="107" height="107" viewBox="0 0 107 107" fill="none" xmlns="http://www.w3.org/2000/svg">
<path d="M37.3894 81.6636C37.3382 82.1724 37.3822 82.7039 37.5677 83.2305C38.0207 84.5003 39.0835 85.5346 40.3426 85.9246C41.5124 86.2943 42.6764 86.0482 43.0295 85.6642L45.4702 83.0451C46.1764 82.2901 46.3548 81.0834 45.9399 79.9123C44.9186 77.9554 43.5502 77.2492 41.7978 76.933L37.3894 81.6636Z" fill="#99B56F"/>
<path d="M34.1247 68.568L29.8589 73.1429C28.9922 74.0856 28.7438 75.5349 29.2276 76.9235C29.7412 78.3906 30.967 79.5843 32.4341 80.0301C33.8227 80.4462 35.2161 80.1228 36.0887 79.1943L40.0382 74.9583C40.9109 74.0179 41.1534 72.5758 40.6695 71.1871C40.1559 69.7129 38.923 68.524 37.4631 68.0806C36.298 67.7084 34.9307 67.6942 34.1247 68.568Z" fill="#99B56F"/>
<path d="M25.6681 61.0399L21.7293 65.2688C20.8614 66.2045 20.6189 67.6585 21.098 69.0519C21.6116 70.5142 22.8374 71.7078 24.3045 72.1537C25.6907 72.5757 27.0983 72.2464 27.537 71.7816L31.9098 67.089C32.7824 66.1462 33.025 64.697 32.5411 63.3107C32.0251 61.8389 30.7994 60.65 29.3323 60.2089C27.9829 59.769 26.4896 60.1602 25.6681 61.0399Z" fill="#99B56F"/>
<path d="M17.9629 52.7034L13.5973 57.3983C12.7247 58.3387 12.4821 59.7809 12.966 61.1624C13.4749 62.6413 14.7077 63.8302 16.1748 64.2761C17.5611 64.6898 18.9663 64.3688 19.4003 63.898L23.7778 59.2054V59.2007C24.6504 58.2722 24.893 56.8277 24.4091 55.4414C23.9026 53.9624 22.6697 52.7736 21.2026 52.3325C20.0815 51.9461 18.725 51.8795 17.9629 52.7034Z" fill="#99B56F"/>
<path d="M74.6396 24.704C71.816 26.2828 67.8915 26.5658 64.0692 26.8404C61.1778 27.0378 58.1949 27.247 56.0514 28.0388L44.1327 32.4365C44.0519 32.4686 43.9699 32.4876 43.8843 32.4995C43.3088 32.5899 42.7762 32.6672 42.2983 32.7337C39.3962 33.1427 39.0609 33.2675 38.7269 34.1271C38.4225 34.9213 38.7566 36.0662 39.5817 37.0387C40.2546 37.8376 42.888 40.3319 48.3057 39.0491L55.0931 38.1527C58.894 37.6629 61.9411 40.1405 64.3748 42.1402L82.6278 56.7422L82.6421 56.735C86.2503 55.2251 90.0096 53.2611 93.2053 49.4115L74.6396 24.704Z" fill="#99B56F"/>
<path d="M49.5243 23.817C48.4425 23.9168 47.2025 24.0536 45.9018 24.1891C38.7078 24.9571 34.7191 25.2591 32.6897 24.8834L14.0134 49.1926C14.7006 49.8429 15.2701 50.5182 15.729 51.2494C17.29 49.6515 19.6488 49.0809 21.9457 49.7752C24.1998 50.4552 26.0818 52.2825 26.8689 54.5498C27.203 55.5092 27.3076 56.4936 27.222 57.4364C28.1434 57.3068 29.1171 57.3603 30.0753 57.6528C32.3235 58.328 34.2127 60.1601 34.9937 62.4273C35.3326 63.382 35.4396 64.364 35.3587 65.3068C36.2801 65.1772 37.2538 65.2319 38.2121 65.5303C40.4555 66.2104 42.3363 68.0377 43.1234 70.293C43.618 71.7233 43.637 73.1951 43.2351 74.5148C43.4646 74.5588 43.7 74.6146 43.9342 74.6883C45.947 75.3125 47.6566 76.9663 48.3925 79.0052C49.094 80.9788 48.7896 83.0522 47.6376 84.5407L50.951 87.1907C51.7618 87.8339 52.9436 87.904 54.0469 87.369C55.2429 86.7889 56.1465 85.6107 56.4128 84.2922C56.5245 83.7417 56.4877 83.2079 56.3617 82.7133L52.1589 79.3512C51.5942 78.8982 51.4943 78.0624 51.9354 77.4822C52.3812 76.9068 53.1992 76.7998 53.7675 77.2528L58.8203 81.3021C59.322 81.704 60.7594 81.811 62.0778 81.1904C63.4641 80.5282 64.5115 79.1633 64.8016 77.6404C65.0798 76.2006 64.6339 74.8049 63.6424 74.0059L59.0723 70.3489C58.5028 69.8959 58.403 69.0578 58.8488 68.4847C59.2899 67.9022 60.1126 67.7952 60.6761 68.2553L67.3196 73.5684C68.3183 74.3626 69.7533 74.472 71.0789 73.8537C72.4533 73.1963 73.5007 71.8338 73.7979 70.2942C74.0761 68.8545 73.6303 67.4635 72.628 66.6574L65.9821 61.3514C65.4127 60.8937 65.3128 60.0579 65.7586 59.4729C66.2045 58.8999 67.0224 58.8 67.5931 59.2518C67.5931 59.2518 77.6844 67.3208 77.6915 67.3208C78.1932 67.7155 79.6235 67.8273 80.936 67.1995C82.3246 66.5516 83.3649 65.1891 83.6669 63.6543C83.9403 62.2121 83.4945 60.8116 82.497 60.0198L62.746 44.2136C60.48 42.3553 58.139 40.4305 55.4201 40.7955L48.7694 41.6634C44.2861 42.7405 40.0572 41.6753 37.6117 38.7839C36.1375 37.0422 35.6357 34.8879 36.298 33.1557C37.2265 30.753 39.0051 30.5045 41.9404 30.0907C42.3791 30.0349 42.8511 29.9659 43.3707 29.8839L55.1668 25.5325C55.9337 25.2472 56.7825 25.0499 57.6611 24.8751C54.6283 23.7017 52.43 23.6315 49.5243 23.817Z" fill="#99B56F"/>
<path d="M23.8895 19.2101C21.7412 19.0472 19.7795 20.6665 16.9559 24.3437L9.73462 33.7502C7.12263 37.1433 6.14417 39.2536 6.36055 41.0417C6.53413 42.5111 7.55658 43.9533 8.5707 44.7665L11.9959 47.5021L30.5961 23.2928L28.1886 21.3656C26.5336 20.0459 25.1783 19.31 23.8895 19.2101Z" fill="#99B56F"/>
<path d="M83.5337 19.1851C82.245 19.2659 80.8777 19.9864 79.2097 21.287L76.7761 23.175L95.1182 47.5817L97.4889 45.7377C99.5397 44.147 100.586 42.7239 100.777 41.2556C101.014 39.4723 100.066 37.3454 97.496 33.9083L90.3924 24.4114C87.6247 20.6962 85.688 19.0472 83.5337 19.1851Z" fill="#99B56F"/>
</svg>
