<svg width="170" height="170" viewBox="0 0 170 170" fill="none" xmlns="http://www.w3.org/2000/svg">
<g clip-path="url(#clip0_1_64)">
<path d="M144.065 83.9508H165.02C167.769 83.9508 170 81.7228 170 78.9703C170 76.2211 167.769 73.9898 165.02 73.9898H146.044C148.431 58.9422 147.322 48.7654 147.259 48.2176C147.033 46.2486 145.662 44.6017 143.77 44.024C136.203 41.7064 129.608 39.3556 123.871 37.0513V24.7396H140.974C143.029 30.5369 148.567 34.7006 155.059 34.7006C163.296 34.7006 170 27.9969 170 19.7592C170 11.5181 163.296 4.81775 155.059 4.81775C148.567 4.81775 143.029 8.98142 140.974 14.7787H118.89C116.138 14.7787 113.91 17.0066 113.91 19.7592V32.7183C95.449 24.0025 89.3297 16.8539 88.9611 16.409C86.9713 13.6714 83.0304 13.669 81.0389 16.409C80.6703 16.8539 74.551 24.0025 56.09 32.7183V19.7592C56.09 17.0066 53.8621 14.7787 51.1096 14.7787H29.0262C26.9709 8.98142 21.4326 4.81775 14.9414 4.81775C6.70371 4.81775 0 11.5181 0 19.7592C0 27.9969 6.70371 34.7006 14.9414 34.7006C21.4326 34.7006 26.9709 30.5369 29.0262 24.7396H46.1291V37.0513C40.3916 39.3556 33.7975 41.7064 26.2305 44.024C24.3379 44.6017 22.9666 46.2486 22.7408 48.2176C22.6777 48.7654 21.5688 58.9422 23.9561 73.9898H4.98047C2.23125 73.9898 0 76.2211 0 78.9703C0 81.7228 2.23125 83.9508 4.98047 83.9508H25.935C27.023 88.482 28.2947 92.8372 29.9891 97.5806H16.3061C13.5568 97.5806 11.3256 99.8086 11.3256 102.561C11.3256 105.31 13.5568 107.542 16.3061 107.542H34.0066C38.3287 117.098 43.5884 125.736 49.8146 133.795H29.0262C26.9709 127.998 21.4326 123.834 14.9414 123.834C6.70371 123.834 0 130.538 0 138.776C0 147.013 6.70371 153.717 14.9414 153.717C21.4326 153.717 26.9709 149.553 29.0262 143.756H58.308C65.3238 151.237 73.2893 158.107 82.1512 164.286C83.8648 165.481 86.1355 165.481 87.8488 164.286C96.7107 158.107 104.676 151.237 111.692 143.756H140.974C143.029 149.553 148.567 153.717 155.059 153.717C163.296 153.717 170 147.013 170 138.776C170 130.538 163.296 123.834 155.059 123.834C148.567 123.834 143.029 127.998 140.974 133.795H120.185C126.397 125.755 131.661 117.12 135.993 107.542H153.694C156.443 107.542 158.674 105.31 158.674 102.561C158.674 99.8086 156.443 97.5806 153.694 97.5806H140.011C141.703 92.8429 142.975 88.4876 144.065 83.9508ZM112.406 109.464C112.406 114.471 108.335 118.542 103.328 118.542H66.6719C61.6648 118.542 57.5941 114.471 57.5941 109.464V80.9426C57.5941 76.9847 60.1375 73.6146 63.677 72.3728V69.1322C63.677 57.375 73.2428 47.8092 85 47.8092C96.7572 47.8092 106.323 57.375 106.323 69.1322V72.3728C109.863 73.6146 112.406 76.9847 112.406 80.9426V109.464Z" fill="#13B1E7"/>
<path d="M67.5551 81.8258V108.581H102.445V81.8258H67.5551ZM89.9805 96.9598C89.9805 99.7123 87.7492 101.94 85 101.94C82.2508 101.94 80.0195 99.7123 80.0195 96.9598V93.4469C80.0195 90.6944 82.2508 88.4664 85 88.4664C87.7492 88.4664 89.9805 90.6944 89.9805 93.4469V96.9598Z" fill="#13B1E7"/>
<path d="M96.3621 69.1323V71.8649H73.6379V69.1323C73.6379 62.8668 78.7346 57.7701 85 57.7701C91.2654 57.7701 96.3621 62.8668 96.3621 69.1323Z" fill="#13B1E7"/>
</g>
<defs>
<clipPath id="clip0_1_64">
<rect width="170" height="170" fill="white"/>
</clipPath>
</defs>
</svg>
