<svg width="170" height="170" viewBox="0 0 170 170" fill="none" xmlns="http://www.w3.org/2000/svg">
<path fill-rule="evenodd" clip-rule="evenodd" d="M33.2154 32.6214V16.1736C33.2154 12.4246 36.2731 9.36694 40.0221 9.36694H159.873C163.622 9.36694 166.68 12.4246 166.68 16.1736V100.298C166.68 104.046 163.622 107.104 159.873 107.104H143.425V46.0687C143.425 38.6548 137.392 32.6214 129.978 32.6214H33.2154ZM10.127 39.262C6.37799 39.262 3.32031 42.3197 3.32031 46.0687V132.643C3.32031 136.392 6.37799 139.45 10.127 139.45H33.2154V158.967C33.2154 159.634 33.5833 160.204 34.1909 160.48C34.7985 160.755 35.4699 160.655 35.9709 160.215L59.6132 139.45H129.978C133.727 139.45 136.785 136.392 136.785 132.643V46.0687C136.785 42.3197 133.727 39.262 129.978 39.262H10.127ZM101.075 94.8574C102.28 94.8574 103.256 93.8808 103.256 92.6762V86.0359C103.256 84.8313 102.28 83.8548 101.075 83.8548C94.5359 83.8548 91.2551 75.9336 95.8783 71.3104C96.73 70.4587 96.73 69.0774 95.8783 68.2258L91.1828 63.5302C90.3311 62.6785 88.9498 62.6785 88.0982 63.5302C83.475 68.1534 75.5537 64.8729 75.5537 58.3342C75.5537 57.1293 74.5769 56.1531 73.3726 56.1531H66.7323C65.528 56.1531 64.5512 57.1293 64.5512 58.3342C64.5512 64.8729 56.6299 68.1537 52.0064 63.5302C51.1547 62.6785 49.7735 62.6785 48.9218 63.5302L44.2266 68.2258C43.3749 69.0774 43.3749 70.4587 44.2266 71.3104C48.8498 75.9336 45.569 83.8548 39.0306 83.8548C37.8257 83.8548 36.8495 84.8317 36.8495 86.0359V92.6762C36.8495 93.8805 37.8257 94.8574 39.0306 94.8574C45.569 94.8574 48.8498 102.779 44.2266 107.402C43.3749 108.253 43.3749 109.635 44.2266 110.486L48.9221 115.182C49.7738 116.034 51.1551 116.034 52.0067 115.182C56.6359 110.553 64.5515 113.831 64.5515 120.378C64.5515 121.583 65.5284 122.559 66.7326 122.559H73.3729C74.5772 122.559 75.554 121.583 75.554 120.378C75.554 113.839 83.4753 110.559 88.0985 115.182C88.9502 116.034 90.3314 116.034 91.1831 115.182L95.8787 110.486C96.7303 109.635 96.7303 108.253 95.8787 107.402C91.2551 102.779 94.5359 94.8574 101.075 94.8574ZM70.0526 75.4471C62.3711 75.4471 56.1438 81.6744 56.1438 89.3559C56.1438 97.0375 62.3711 103.265 70.0526 103.265C77.7342 103.265 83.9614 97.0375 83.9614 89.3559C83.9614 81.6744 77.7342 75.4471 70.0526 75.4471Z" fill="#13B1E7"/>
</svg>
