<svg width="74" height="74" viewBox="0 0 74 74" fill="none" xmlns="http://www.w3.org/2000/svg">
<g clip-path="url(#clip0_1_116)">
<path d="M70.3 3.7H59.2V0H14.8V3.7H3.7C1.48 3.7 0 5.18 0 7.4V16.28C0 24.79 6.29 31.82 14.8 32.93V33.3C14.8 44.03 22.2 52.91 32.19 55.13L29.6 62.9H21.09C19.61 62.9 18.13 64.01 17.76 65.49L14.8 74H59.2L56.24 65.49C55.87 64.01 54.39 62.9 52.91 62.9H44.4L41.81 55.13C51.8 52.91 59.2 44.03 59.2 33.3V32.93C67.71 31.82 74 24.79 74 16.28V7.4C74 5.18 72.52 3.7 70.3 3.7ZM14.8 25.53C10.73 24.42 7.4 20.72 7.4 16.28V11.1H14.8V25.53ZM44.4 37L37 32.93L29.6 37L31.45 29.6L25.9 22.2H33.67L37 14.8L40.33 22.2H48.1L42.55 29.6L44.4 37ZM66.6 16.28C66.6 20.72 63.27 24.79 59.2 25.53V11.1H66.6V16.28Z" fill="#99B56F"/>
</g>
<defs>
<clipPath id="clip0_1_116">
<rect width="74" height="74" fill="white"/>
</clipPath>
</defs>
</svg>
