<svg width="170" height="170" viewBox="0 0 170 170" fill="none" xmlns="http://www.w3.org/2000/svg">
<path fill-rule="evenodd" clip-rule="evenodd" d="M102.768 66.8628C121.657 66.8628 136.969 82.1747 136.969 101.063C136.969 119.952 121.657 135.264 102.768 135.264C83.8801 135.264 68.5678 119.952 68.5678 101.063C68.5678 82.1747 83.8801 66.8628 102.768 66.8628ZM128.817 130.771L135.475 137.297L135.116 137.666C133.926 138.893 133.955 140.872 135.183 142.063L153.964 160.287C155.191 161.478 157.17 161.449 158.361 160.222L165.141 153.233C166.332 152.006 166.302 150.028 165.075 148.837L146.294 130.612C145.067 129.421 143.088 129.451 141.898 130.678L141.483 131.105L134.648 124.406C132.94 126.735 130.983 128.869 128.817 130.771ZM33.4054 3.21506C15.4637 4.57174 1.32782 19.5593 1.32782 37.8486C1.32782 57.0314 16.8785 72.5824 36.0616 72.5824C41.4495 72.5824 46.5511 71.3558 51.1016 69.1661L33.8602 39.3358C33.573 38.9114 33.4054 38.3997 33.4054 37.8489V3.21506ZM113.826 139.005V164.482C113.826 166.311 112.335 167.803 110.506 167.803C106.829 167.803 103.153 167.803 99.4763 167.803C97.6474 167.803 96.1559 166.311 96.1559 164.482V140.022C98.3065 140.384 100.515 140.576 102.769 140.576C106.607 140.576 110.317 140.027 113.826 139.005ZM114.629 18.6309C113.162 18.6309 111.973 17.4416 111.973 15.9747C111.973 14.5078 113.162 13.3184 114.629 13.3184H140.323C141.79 13.3184 142.979 14.5078 142.979 15.9747C142.979 17.4416 141.79 18.6309 140.323 18.6309H114.629ZM90.9819 57.0656H99.9401C101.999 57.0656 103.678 58.7446 103.678 60.8032V61.5616C103.375 61.5549 103.072 61.55 102.768 61.55C97.2573 61.55 92.0102 62.6799 87.2442 64.7185V60.8032C87.2442 58.7446 88.9233 57.0656 90.9819 57.0656ZM124.69 68.1869C127.002 69.7319 129.141 71.5146 131.074 73.4994H140.323C141.79 73.4994 142.979 72.3101 142.979 70.8432C142.979 69.3763 141.79 68.1869 140.323 68.1869H124.69ZM114.629 62.3781C113.162 62.3781 111.973 61.1887 111.973 59.7218C111.973 58.2549 113.162 57.0656 114.629 57.0656H166.016C167.483 57.0656 168.672 58.2549 168.672 59.7218C168.672 61.1887 167.483 62.3781 166.016 62.3781H114.629ZM90.9819 29.6315H99.9401C101.999 29.6315 103.678 31.3106 103.678 33.3691V42.3273C103.678 44.3859 101.999 46.065 99.9401 46.065H90.9819C88.9233 46.065 87.2442 44.3859 87.2442 42.3273V33.3691C87.2442 31.3106 88.9233 29.6315 90.9819 29.6315ZM114.629 46.0654C113.162 46.0654 111.973 44.876 111.973 43.4091C111.973 41.9422 113.162 40.7529 114.629 40.7529H140.323C141.79 40.7529 142.979 41.9422 142.979 43.4091C142.979 44.876 141.79 46.0654 140.323 46.0654H114.629ZM114.629 34.944C113.162 34.944 111.973 33.7546 111.973 32.2877C111.973 30.8208 113.162 29.6315 114.629 29.6315H166.016C167.483 29.6315 168.672 30.8208 168.672 32.2877C168.672 33.7546 167.483 34.944 166.016 34.944H114.629ZM90.9819 2.19739H99.9401C101.999 2.19739 103.678 3.87647 103.678 5.93506V14.8933C103.678 16.9519 101.999 18.6309 99.9401 18.6309H90.9819C88.9233 18.6309 87.2442 16.9519 87.2442 14.8933V5.93506C87.2442 3.87647 88.9233 2.19739 90.9819 2.19739ZM114.629 7.50989C113.162 7.50989 111.973 6.32055 111.973 4.85364C111.973 3.38672 113.162 2.19739 114.629 2.19739H166.016C167.483 2.19739 168.672 3.38672 168.672 4.85364C168.672 6.32055 167.483 7.50989 166.016 7.50989H114.629ZM81.7567 134.528C74.9033 130.216 69.4676 123.857 66.3067 116.31C65.0157 116.765 64.086 117.999 64.086 119.442V164.482C64.086 166.311 65.5775 167.803 67.4064 167.803H78.4361C80.2649 167.803 81.7564 166.311 81.7564 164.482L81.7567 134.528ZM35.3371 91.6499H46.3669C48.1957 91.6499 49.6872 93.1414 49.6872 94.9702V164.482C49.6872 166.311 48.1957 167.803 46.3669 167.803C42.6903 167.803 39.0137 167.803 35.3371 167.803C33.5083 167.803 32.0168 166.311 32.0168 164.482C32.0168 141.311 32.0168 118.141 32.0168 94.9702C32.0168 93.1414 33.5083 91.6499 35.3371 91.6499ZM4.6488 107.157H15.6785C17.5074 107.157 18.9989 108.649 18.9989 110.477V164.482C18.9989 166.311 17.5074 167.803 15.6785 167.803C12.002 167.803 8.32538 167.803 4.6488 167.803C2.81997 167.803 1.32848 166.311 1.32848 164.482C1.32848 146.481 1.32848 128.479 1.32848 110.477C1.32848 108.649 2.81997 107.157 4.6488 107.157ZM55.687 66.5079L40.6576 40.5048H70.6945C69.8777 51.3015 64.1249 60.7186 55.687 66.5079ZM70.6941 35.1923H38.7179V3.21506C55.7829 4.50534 69.4035 18.1273 70.6941 35.1923ZM102.768 78.8163C96.6251 78.8163 91.0632 81.3062 87.0377 85.3317C83.0122 89.3572 80.5223 94.9191 80.5223 101.062C80.5223 106.724 82.637 111.891 86.1193 115.818C88.2802 108.671 94.9175 103.464 102.769 103.464C110.622 103.464 117.258 108.67 119.417 115.818C122.9 111.892 125.015 106.724 125.015 101.063C125.015 94.9194 122.525 89.3576 118.499 85.332C114.473 81.3062 108.912 78.8163 102.768 78.8163ZM102.768 84.5647C97.9124 84.5647 93.9758 88.5013 93.9758 93.3572C93.9758 98.2132 97.9124 102.15 102.768 102.15C107.624 102.15 111.561 98.2132 111.561 93.3572C111.561 88.5013 107.624 84.5647 102.768 84.5647ZM83.2818 81.5758C78.2943 86.5629 75.2098 93.4525 75.2098 101.062C75.2098 108.672 78.2943 115.562 83.2818 120.549C88.2689 125.536 95.1585 128.621 102.768 128.621C110.378 128.621 117.268 125.536 122.255 120.549C127.242 115.562 130.327 108.672 130.327 101.062C130.327 93.4525 127.242 86.5629 122.255 81.5758C117.268 76.5887 110.378 73.5038 102.768 73.5038C95.1585 73.5038 88.2685 76.5887 83.2818 81.5758Z" fill="#13B1E7"/>
</svg>
