<svg width="85" height="85" viewBox="0 0 85 85" fill="none" xmlns="http://www.w3.org/2000/svg">
<path d="M79.8535 55.1172C79.8535 52.3779 77.6123 50.1367 74.873 50.1367C77.6123 50.1367 79.8535 47.8955 79.8535 45.1563C79.8535 42.417 77.6123 40.1758 74.873 40.1758H54.4533C57.4912 31.0614 57.4414 28.1563 57.4414 22.5781C57.4414 18.4342 54.0437 15.1074 49.9707 15.1074H48.4766C47.5303 15.1074 46.335 15.8547 46.0858 17C43.6219 26.5926 39.7699 37.5999 30.0488 39.8295V75.8652L38.6649 78.7244C41.2049 79.571 43.8447 80.0194 46.5342 80.0194H69.8926C72.6433 80.0195 74.873 77.7894 74.873 75.0391C74.873 72.2884 72.6433 70.0586 69.8926 70.0586H74.873C77.6123 70.0586 79.8535 67.8174 79.8535 65.0781C79.8535 62.3389 77.6123 60.0977 74.873 60.0977C77.6123 60.0977 79.8535 57.8564 79.8535 55.1172Z" fill="#99B56F"/>
<path d="M17.5977 35.1953H7.63672C6.26028 35.1953 5.14648 36.3091 5.14648 37.6855V82.5098C5.14648 83.8862 6.26028 85 7.63672 85H17.5977C21.7172 85 25.0684 81.6488 25.0684 77.5293V42.666C25.0684 38.5465 21.7172 35.1953 17.5977 35.1953ZM17.5977 75.0391C16.2224 75.0391 15.1074 73.9241 15.1074 72.5488C15.1074 71.1732 16.2224 70.0586 17.5977 70.0586C18.9729 70.0586 20.0879 71.1732 20.0879 72.5488C20.0879 73.9241 18.9729 75.0391 17.5977 75.0391Z" fill="#99B56F"/>
<path d="M39.4043 10.9806L35.883 7.45925C34.9103 6.48656 33.3343 6.48656 32.3616 7.45925C31.3889 8.43194 31.3889 10.0079 32.3616 10.9806L35.883 14.502C36.8556 15.4746 38.4315 15.4746 39.4043 14.502C40.377 13.5293 40.377 11.9533 39.4043 10.9806Z" fill="#99B56F"/>
<path d="M67.5798 7.45925C66.6071 6.48656 65.0311 6.48656 64.0585 7.45925L60.5371 10.9806C59.5644 11.9533 59.5644 13.5293 60.5371 14.502C61.5098 15.4746 63.0858 15.4746 64.0585 14.502L67.5798 10.9806C68.5525 10.0079 68.5525 8.43194 67.5798 7.45925Z" fill="#99B56F"/>
<path d="M49.9707 0C48.576 0 47.4805 1.09554 47.4805 2.49023V7.63672C47.4805 9.03142 48.576 10.127 49.9707 10.127C51.3654 10.127 52.4609 9.03142 52.4609 7.63672V2.49023C52.4609 1.09554 51.3654 0 49.9707 0Z" fill="#99B56F"/>
</svg>
