<svg width="58" height="58" viewBox="0 0 58 58" fill="none" xmlns="http://www.w3.org/2000/svg">
<path fill-rule="evenodd" clip-rule="evenodd" d="M7.25 14.4999C7.25 13.1652 8.33199 12.0833 9.66667 12.0833H48.3333C49.6681 12.0833 50.75 13.1652 50.75 14.4999C50.75 15.8346 49.6681 16.9166 48.3333 16.9166H9.66667C8.33199 16.9166 7.25 15.8346 7.25 14.4999ZM7.25 28.9999C7.25 27.6652 8.33199 26.5833 9.66667 26.5833H33.8333C35.1681 26.5833 36.25 27.6652 36.25 28.9999C36.25 30.3346 35.1681 31.4166 33.8333 31.4166H9.66667C8.33199 31.4166 7.25 30.3346 7.25 28.9999ZM7.25 43.4999C7.25 42.1652 8.33199 41.0833 9.66667 41.0833H21.75C23.0847 41.0833 24.1667 42.1652 24.1667 43.4999C24.1667 44.8346 23.0847 45.9166 21.75 45.9166H9.66667C8.33199 45.9166 7.25 44.8346 7.25 43.4999Z" fill="#6E6E70"/>
</svg>
